<svg xmlns="http://www.w3.org/2000/svg" width="24" height="24" viewBox="0 0 24 24"><path d="m18.92 17.5 1.38-1.39a.996.996 0 1 0-1.41-1.41l-1.39 1.38-1.39-1.38a.996.996 0 1 0-1.41 1.41l1.39 1.39-1.39 1.39a.996.996 0 1 0 1.41 1.41l1.39-1.38 1.39 1.38a.996.996 0 1 0 1.41-1.41l-1.38-1.39zM12 14c0-.36.1-.69.27-.98-.1 0-.18-.02-.27-.02-1.93 0-3.7.68-5.08 1.82-.2.16-.39.33-.57.51l4.94 4.95c.19.19.45.29.7.29V14z"/><path fill-opacity=".3" d="M23.21 8.24C20.22 5.6 16.3 4 12 4S3.78 5.6.79 8.24C.35 8.63.32 9.3.73 9.71l5.62 5.63c.18-.18.37-.35.57-.51A7.953 7.953 0 0 1 12 13c.09 0 .18.02.27.02.34-.6.98-1.02 1.73-1.02h6.99l2.28-2.29c.41-.41.38-1.08-.06-1.47z"/></svg>