<svg xmlns="http://www.w3.org/2000/svg" width="24" height="24" viewBox="0 0 24 24"><path fill-opacity=".3" d="M17 11.21V10c0-1.1.9-2 2-2h3.92C19.96 5.51 16.16 4 12 4 7.7 4 3.78 5.6.79 8.24.35 8.63.32 9.3.73 9.71l3.5 3.51A10.96 10.96 0 0 1 17 11.21z"/><path d="m4.23 13.22 7.06 7.08c.39.39 1.02.39 1.42 0L17 16v-4.78c-1.5-.78-3.2-1.22-5-1.22-3.03 0-5.78 1.23-7.77 3.22zM20 20c.55 0 1-.45 1-1s-.45-1-1-1-1 .45-1 1 .45 1 1 1zm0-10c-.55 0-1 .45-1 1v4c0 .55.45 1 1 1s1-.45 1-1v-4c0-.55-.45-1-1-1z"/></svg>