<svg xmlns="http://www.w3.org/2000/svg" width="24" height="24" viewBox="0 0 24 24"><path fill-opacity=".3" d="M17 14.76V10c0-1.1.9-2 2-2h3.92C19.96 5.51 16.16 4 12 4 7.7 4 3.78 5.6.79 8.24.35 8.63.32 9.3.73 9.71l5.62 5.63A7.95 7.95 0 0 1 12 13c1.89 0 3.63.66 5 1.76z"/><path d="m6.35 15.34 4.94 4.95c.39.39 1.02.39 1.42 0l4.29-4.3v-1.23A7.963 7.963 0 0 0 12 13c-2.21 0-4.2.89-5.65 2.34zM20 20c.55 0 1-.45 1-1s-.45-1-1-1-1 .45-1 1 .45 1 1 1zm0-10c-.55 0-1 .45-1 1v4c0 .55.45 1 1 1s1-.45 1-1v-4c0-.55-.45-1-1-1z"/></svg>