<svg xmlns="http://www.w3.org/2000/svg" width="24" height="24" viewBox="0 0 24 24"><path d="M20 10c-.55 0-1 .45-1 1v4c0 .55.45 1 1 1s1-.45 1-1v-4c0-.55-.45-1-1-1zm0 10c.55 0 1-.45 1-1s-.45-1-1-1-1 .45-1 1 .45 1 1 1zm-3-7.5V10c0-.33.09-.63.22-.9C14.74 8.02 12.59 8 12 8c-3.59 0-6.83 1.45-9.18 3.8l8.48 8.49c.39.39 1.02.39 1.42 0l4.29-4.3V12.5z"/><path fill-opacity=".3" d="M17.2 9.14C17.53 8.47 18.21 8 19 8h3.92C19.96 5.51 16.16 4 12 4 7.7 4 3.78 5.6.79 8.24.35 8.63.32 9.3.73 9.71l2.09 2.09A12.93 12.93 0 0 1 12 8c2.38 0 4.59.73 5.2 1.14z"/></svg>