<svg xmlns="http://www.w3.org/2000/svg" width="24" height="24" viewBox="0 0 24 24"><path fill-opacity=".3" d="M18.31 12h2.67l2.29-2.29c.41-.41.38-1.08-.06-1.47C20.22 5.6 16.3 4 12 4S3.78 5.6.79 8.24C.35 8.62.32 9.3.73 9.71l3.5 3.51A10.96 10.96 0 0 1 12 10c2.35 0 4.52.74 6.31 2z"/><path d="M12 10c-3.03 0-5.78 1.23-7.77 3.22l7.06 7.08c.19.19.45.29.7.29V14c0-1.1.9-2 2-2h4.32c-1.79-1.26-3.96-2-6.31-2zm6.92 7.5 1.38-1.38a.996.996 0 1 0-1.41-1.41l-1.39 1.38-1.39-1.38a.996.996 0 1 0-1.41 1.41l1.39 1.38-1.39 1.38a.996.996 0 1 0 1.41 1.41l1.39-1.38 1.39 1.38a.996.996 0 1 0 1.41-1.41l-1.38-1.38z"/></svg>